P3
16 16 255
255 221 255	247 186 255	193 118 247	148 73 202	167 68 177	213 114 223	255 171 255	255 205 255	255 92 147	205 36 91	173 0 0	161 0 0	215 0 0	255 32 43	255 50 49	255 50 49
255 221 255	237 176 255	171 96 225	114 39 168	129 30 139	176 77 186	255 139 224	255 189 255	255 104 159	218 49 104	185 0 12	169 0 0	217 0 1	251 24 35	255 33 32	255 28 27
254 239 255	207 192 255	126 100 191	58 32 123	63 15 89	111 63 137	208 131 183	255 185 237	249 142 170	195 88 116	156 23 28	137 4 9	172 18 6	192 38 26	200 33 14	186 19 0
254 239 255	222 207 255	142 116 207	73 47 138	76 28 102	119 71 145	212 135 187	255 185 237	254 147 175	204 97 125	171 38 43	152 19 24	180 26 14	187 33 21	180 13 0	157 0 0
216 255 255	192 242 255	133 175 200	83 125 150	85 113 127	118 146 160	183 193 194	221 231 232	180 168 152	137 125 109	107 78 48	95 66 36	119 76 34	119 76 34	98 46 0	67 15 0
176 226 255	161 211 244	146 188 213	132 174 199	144 172 186	162 190 204	200 210 211	216 226 227	151 139 123	118 106 90	102 73 43	104 75 45	134 91 49	133 90 48	108 56 8	73 21 0
55 150 108	71 166 124	100 191 147	125 216 172	144 230 181	146 232 183	147 226 171	141 220 165	64 135 75	40 111 51	29 95 31	45 111 47	77 138 69	81 142 73	51 108 37	15 72 1
0 73 31	15 110 68	75 166 122	125 216 172	152 238 189	145 231 182	127 206 151	108 187 132	42 113 53	24 95 35	21 87 23	46 112 48	86 147 78	92 153 84	63 120 49	27 84 13
0 63 0	0 89 0	40 131 28	88 179 76	127 223 123	157 253 153	168 255 177	175 255 184	30 140 51	0 109 20	0 86 2	0 94 10	1 122 43	10 131 52	0 108 30	0 79 1
34 123 17	52 141 35	82 173 70	117 208 105	145 241 141	168 255 164	176 255 185	182 255 191	69 179 90	32 142 53	0 110 26	0 109 25	9 130 51	15 136 57	0 112 34	0 83 5
151 187 39	158 194 46	164 207 65	180 223 81	184 241 110	198 255 124	192 255 153	197 255 158	138 234 134	92 188 88	28 144 59	13 129 44	13 143 69	15 145 71	0 123 55	0 95 27
198 234 86	192 228 80	178 221 79	173 216 74	162 219 88	169 226 95	161 238 122	167 244 128	188 255 184	133 229 129	54 170 85	26 142 57	19 149 75	22 152 78	0 134 66	0 110 42
255 230 61	251 214 45	217 192 30	196 171 9	171 166 23	176 171 28	166 190 68	176 200 78	228 255 184	175 229 131	80 162 86	44 126 50	32 136 77	42 146 87	23 139 90	6 122 73
255 243 74	255 219 50	211 186 24	182 157 0	156 151 8	166 161 18	164 188 66	180 204 82	226 255 182	160 214 116	60 142 66	23 105 29	18 122 63	41 145 86	37 153 104	30 146 97
255 249 72	255 227 50	255 189 22	231 158 0	204 157 9	222 175 27	228 212 91	251 235 114	221 242 149	153 174 81	49 101 35	17 69 3	18 95 49	55 132 86	64 155 120	66 157 122
255 249 72	255 249 72	255 211 44	253 180 13	229 182 34	254 207 59	255 250 129	255 255 143	198 219 126	130 151 58	27 79 13	0 50 0	6 83 37	53 130 84	70 161 126	78 169 134